<mxfile host="app.diagrams.net" modified="2022-03-30T14:49:51.363Z" agent="5.0 (Windows NT 10.0; Win64; x64) AppleWebKit/537.36 (KHTML, like Gecko) Chrome/99.0.4844.74 Safari/537.36 Edg/99.0.1150.55" etag="F7gdaFS44y-PMTMhnZu_" version="17.3.0" type="github">
  <diagram id="eKjjdP2h4ViVq8SbY9wO" name="Page-1">
    <mxGraphModel dx="1100" dy="397" grid="1" gridSize="10" guides="1" tooltips="1" connect="1" arrows="1" fold="1" page="1" pageScale="1" pageWidth="1600" pageHeight="900" math="0" shadow="0">
      <root>
        <mxCell id="0" />
        <mxCell id="1" parent="0" />
        <mxCell id="d_-2GbY-tVZR_mkNFV36-1" style="edgeStyle=orthogonalEdgeStyle;rounded=0;orthogonalLoop=1;jettySize=auto;html=1;exitX=0;exitY=0.5;exitDx=0;exitDy=0;endArrow=none;endFill=0;fillColor=#000000;" edge="1" parent="1" source="d_-2GbY-tVZR_mkNFV36-5" target="d_-2GbY-tVZR_mkNFV36-45">
          <mxGeometry relative="1" as="geometry" />
        </mxCell>
        <mxCell id="d_-2GbY-tVZR_mkNFV36-2" style="edgeStyle=orthogonalEdgeStyle;rounded=0;orthogonalLoop=1;jettySize=auto;html=1;exitX=0;exitY=0;exitDx=0;exitDy=0;endArrow=none;endFill=0;fillColor=#000000;" edge="1" parent="1" source="d_-2GbY-tVZR_mkNFV36-5" target="d_-2GbY-tVZR_mkNFV36-97">
          <mxGeometry relative="1" as="geometry" />
        </mxCell>
        <mxCell id="d_-2GbY-tVZR_mkNFV36-3" style="edgeStyle=orthogonalEdgeStyle;rounded=0;orthogonalLoop=1;jettySize=auto;html=1;exitX=1;exitY=0;exitDx=0;exitDy=0;entryX=0.5;entryY=1;entryDx=0;entryDy=0;endArrow=none;endFill=0;fillColor=#000000;" edge="1" parent="1" source="d_-2GbY-tVZR_mkNFV36-5" target="d_-2GbY-tVZR_mkNFV36-101">
          <mxGeometry relative="1" as="geometry" />
        </mxCell>
        <mxCell id="d_-2GbY-tVZR_mkNFV36-4" style="edgeStyle=orthogonalEdgeStyle;rounded=0;orthogonalLoop=1;jettySize=auto;html=1;exitX=1;exitY=0.25;exitDx=0;exitDy=0;entryX=0.5;entryY=1;entryDx=0;entryDy=0;endArrow=none;endFill=0;fillColor=#000000;" edge="1" parent="1" source="d_-2GbY-tVZR_mkNFV36-5" target="d_-2GbY-tVZR_mkNFV36-104">
          <mxGeometry relative="1" as="geometry" />
        </mxCell>
        <mxCell id="d_-2GbY-tVZR_mkNFV36-5" value="Utente" style="whiteSpace=wrap;html=1;align=center;" vertex="1" parent="1">
          <mxGeometry x="470" y="165" width="100" height="40" as="geometry" />
        </mxCell>
        <mxCell id="d_-2GbY-tVZR_mkNFV36-6" style="edgeStyle=orthogonalEdgeStyle;rounded=0;orthogonalLoop=1;jettySize=auto;html=1;exitX=0.5;exitY=0;exitDx=0;exitDy=0;entryX=1;entryY=-0.05;entryDx=0;entryDy=0;endArrow=none;endFill=0;fillColor=#000000;entryPerimeter=0;" edge="1" parent="1" source="d_-2GbY-tVZR_mkNFV36-7" target="d_-2GbY-tVZR_mkNFV36-166">
          <mxGeometry relative="1" as="geometry">
            <mxPoint x="800" y="115" as="targetPoint" />
            <Array as="points">
              <mxPoint x="710" y="110" />
              <mxPoint x="820" y="110" />
            </Array>
          </mxGeometry>
        </mxCell>
        <mxCell id="d_-2GbY-tVZR_mkNFV36-7" value="Fornisce" style="shape=rhombus;perimeter=rhombusPerimeter;whiteSpace=wrap;html=1;align=center;" vertex="1" parent="1">
          <mxGeometry x="650" y="175" width="120" height="60" as="geometry" />
        </mxCell>
        <mxCell id="d_-2GbY-tVZR_mkNFV36-8" value="" style="shape=flexArrow;endArrow=classic;html=1;rounded=0;entryX=0.5;entryY=1;entryDx=0;entryDy=0;fillColor=#000000;" edge="1" parent="1" target="d_-2GbY-tVZR_mkNFV36-5">
          <mxGeometry width="50" height="50" relative="1" as="geometry">
            <mxPoint x="520" y="245" as="sourcePoint" />
            <mxPoint x="540" y="225" as="targetPoint" />
          </mxGeometry>
        </mxCell>
        <mxCell id="d_-2GbY-tVZR_mkNFV36-9" value="" style="endArrow=none;html=1;rounded=0;fillColor=#000000;" edge="1" parent="1">
          <mxGeometry width="50" height="50" relative="1" as="geometry">
            <mxPoint x="440" y="245" as="sourcePoint" />
            <mxPoint x="600" y="245" as="targetPoint" />
          </mxGeometry>
        </mxCell>
        <mxCell id="d_-2GbY-tVZR_mkNFV36-10" style="edgeStyle=orthogonalEdgeStyle;rounded=0;orthogonalLoop=1;jettySize=auto;html=1;exitX=0.5;exitY=0;exitDx=0;exitDy=0;fillColor=#000000;endArrow=none;endFill=0;" edge="1" parent="1" source="d_-2GbY-tVZR_mkNFV36-12">
          <mxGeometry relative="1" as="geometry">
            <mxPoint x="440" y="245" as="targetPoint" />
          </mxGeometry>
        </mxCell>
        <mxCell id="d_-2GbY-tVZR_mkNFV36-11" style="edgeStyle=orthogonalEdgeStyle;rounded=0;orthogonalLoop=1;jettySize=auto;html=1;exitX=0.5;exitY=1;exitDx=0;exitDy=0;entryX=0.5;entryY=0;entryDx=0;entryDy=0;endArrow=none;endFill=0;fillColor=#000000;" edge="1" parent="1" source="d_-2GbY-tVZR_mkNFV36-12" target="d_-2GbY-tVZR_mkNFV36-43">
          <mxGeometry relative="1" as="geometry" />
        </mxCell>
        <mxCell id="d_-2GbY-tVZR_mkNFV36-12" value="Nuotatore Libero" style="whiteSpace=wrap;html=1;align=center;" vertex="1" parent="1">
          <mxGeometry x="390" y="275" width="100" height="40" as="geometry" />
        </mxCell>
        <mxCell id="d_-2GbY-tVZR_mkNFV36-13" style="edgeStyle=orthogonalEdgeStyle;rounded=0;orthogonalLoop=1;jettySize=auto;html=1;exitX=0.5;exitY=0;exitDx=0;exitDy=0;endArrow=none;endFill=0;fillColor=#000000;" edge="1" parent="1" source="d_-2GbY-tVZR_mkNFV36-16">
          <mxGeometry relative="1" as="geometry">
            <mxPoint x="600" y="245" as="targetPoint" />
          </mxGeometry>
        </mxCell>
        <mxCell id="d_-2GbY-tVZR_mkNFV36-14" style="edgeStyle=orthogonalEdgeStyle;rounded=0;orthogonalLoop=1;jettySize=auto;html=1;exitX=0.75;exitY=0;exitDx=0;exitDy=0;entryX=0;entryY=0.5;entryDx=0;entryDy=0;endArrow=none;endFill=0;fillColor=#000000;" edge="1" parent="1" source="d_-2GbY-tVZR_mkNFV36-16" target="d_-2GbY-tVZR_mkNFV36-7">
          <mxGeometry relative="1" as="geometry" />
        </mxCell>
        <mxCell id="d_-2GbY-tVZR_mkNFV36-15" style="edgeStyle=orthogonalEdgeStyle;rounded=0;orthogonalLoop=1;jettySize=auto;html=1;exitX=0.5;exitY=1;exitDx=0;exitDy=0;entryX=0;entryY=0.5;entryDx=0;entryDy=0;endArrow=none;endFill=0;fillColor=#000000;" edge="1" parent="1" source="d_-2GbY-tVZR_mkNFV36-16" target="d_-2GbY-tVZR_mkNFV36-22">
          <mxGeometry relative="1" as="geometry" />
        </mxCell>
        <mxCell id="d_-2GbY-tVZR_mkNFV36-16" value="Iscritto ai Corsi" style="whiteSpace=wrap;html=1;align=center;" vertex="1" parent="1">
          <mxGeometry x="550" y="275" width="100" height="40" as="geometry" />
        </mxCell>
        <mxCell id="d_-2GbY-tVZR_mkNFV36-17" style="edgeStyle=orthogonalEdgeStyle;rounded=0;orthogonalLoop=1;jettySize=auto;html=1;exitX=1;exitY=0.5;exitDx=0;exitDy=0;endArrow=none;endFill=0;fillColor=#000000;entryX=0;entryY=0.5;entryDx=0;entryDy=0;" edge="1" parent="1" source="d_-2GbY-tVZR_mkNFV36-20" target="d_-2GbY-tVZR_mkNFV36-27">
          <mxGeometry relative="1" as="geometry">
            <mxPoint x="1040" y="365.4" as="targetPoint" />
          </mxGeometry>
        </mxCell>
        <mxCell id="d_-2GbY-tVZR_mkNFV36-18" style="edgeStyle=orthogonalEdgeStyle;rounded=0;orthogonalLoop=1;jettySize=auto;html=1;exitX=0.5;exitY=1;exitDx=0;exitDy=0;entryX=0.5;entryY=0;entryDx=0;entryDy=0;endArrow=none;endFill=0;fillColor=#000000;" edge="1" parent="1" source="d_-2GbY-tVZR_mkNFV36-20" target="d_-2GbY-tVZR_mkNFV36-47">
          <mxGeometry relative="1" as="geometry" />
        </mxCell>
        <mxCell id="d_-2GbY-tVZR_mkNFV36-19" style="edgeStyle=orthogonalEdgeStyle;rounded=0;orthogonalLoop=1;jettySize=auto;html=1;exitX=0.75;exitY=1;exitDx=0;exitDy=0;entryX=0.5;entryY=0;entryDx=0;entryDy=0;endArrow=none;endFill=0;fillColor=#000000;" edge="1" parent="1" source="d_-2GbY-tVZR_mkNFV36-20" target="d_-2GbY-tVZR_mkNFV36-131">
          <mxGeometry relative="1" as="geometry" />
        </mxCell>
        <mxCell id="d_-2GbY-tVZR_mkNFV36-20" value="Corso" style="whiteSpace=wrap;html=1;align=center;" vertex="1" parent="1">
          <mxGeometry x="850" y="345" width="100" height="40" as="geometry" />
        </mxCell>
        <mxCell id="d_-2GbY-tVZR_mkNFV36-21" style="edgeStyle=orthogonalEdgeStyle;rounded=0;orthogonalLoop=1;jettySize=auto;html=1;exitX=1;exitY=0.5;exitDx=0;exitDy=0;entryX=0;entryY=0.5;entryDx=0;entryDy=0;endArrow=none;endFill=0;fillColor=#000000;" edge="1" parent="1" source="d_-2GbY-tVZR_mkNFV36-22" target="d_-2GbY-tVZR_mkNFV36-20">
          <mxGeometry relative="1" as="geometry" />
        </mxCell>
        <mxCell id="d_-2GbY-tVZR_mkNFV36-22" value="Frequenta" style="shape=rhombus;perimeter=rhombusPerimeter;whiteSpace=wrap;html=1;align=center;" vertex="1" parent="1">
          <mxGeometry x="630" y="335" width="120" height="60" as="geometry" />
        </mxCell>
        <mxCell id="d_-2GbY-tVZR_mkNFV36-23" style="edgeStyle=orthogonalEdgeStyle;rounded=0;orthogonalLoop=1;jettySize=auto;html=1;exitX=0.25;exitY=0;exitDx=0;exitDy=0;entryX=0.5;entryY=1;entryDx=0;entryDy=0;endArrow=none;endFill=0;fillColor=#000000;" edge="1" parent="1" source="d_-2GbY-tVZR_mkNFV36-25" target="d_-2GbY-tVZR_mkNFV36-139">
          <mxGeometry relative="1" as="geometry" />
        </mxCell>
        <mxCell id="d_-2GbY-tVZR_mkNFV36-24" style="edgeStyle=orthogonalEdgeStyle;rounded=0;orthogonalLoop=1;jettySize=auto;html=1;exitX=1;exitY=0;exitDx=0;exitDy=0;entryX=0.5;entryY=1;entryDx=0;entryDy=0;endArrow=none;endFill=0;fillColor=#000000;" edge="1" parent="1" source="d_-2GbY-tVZR_mkNFV36-25" target="d_-2GbY-tVZR_mkNFV36-144">
          <mxGeometry relative="1" as="geometry" />
        </mxCell>
        <mxCell id="d_-2GbY-tVZR_mkNFV36-25" value="Insegnante" style="whiteSpace=wrap;html=1;align=center;" vertex="1" parent="1">
          <mxGeometry x="1060" y="245" width="100" height="40" as="geometry" />
        </mxCell>
        <mxCell id="d_-2GbY-tVZR_mkNFV36-26" value="" style="edgeStyle=orthogonalEdgeStyle;rounded=0;orthogonalLoop=1;jettySize=auto;html=1;endArrow=none;endFill=0;fillColor=#000000;" edge="1" parent="1" source="d_-2GbY-tVZR_mkNFV36-27" target="d_-2GbY-tVZR_mkNFV36-25">
          <mxGeometry relative="1" as="geometry" />
        </mxCell>
        <mxCell id="d_-2GbY-tVZR_mkNFV36-27" value="Insegna" style="shape=rhombus;perimeter=rhombusPerimeter;whiteSpace=wrap;html=1;align=center;" vertex="1" parent="1">
          <mxGeometry x="1050" y="335" width="120" height="60" as="geometry" />
        </mxCell>
        <mxCell id="d_-2GbY-tVZR_mkNFV36-28" style="edgeStyle=orthogonalEdgeStyle;rounded=0;orthogonalLoop=1;jettySize=auto;html=1;exitX=1;exitY=0.75;exitDx=0;exitDy=0;entryX=0;entryY=0.5;entryDx=0;entryDy=0;endArrow=none;endFill=0;fillColor=#000000;" edge="1" parent="1" source="d_-2GbY-tVZR_mkNFV36-32" target="d_-2GbY-tVZR_mkNFV36-54">
          <mxGeometry relative="1" as="geometry" />
        </mxCell>
        <mxCell id="d_-2GbY-tVZR_mkNFV36-29" style="edgeStyle=orthogonalEdgeStyle;rounded=0;orthogonalLoop=1;jettySize=auto;html=1;exitX=0;exitY=0;exitDx=0;exitDy=0;entryX=0.5;entryY=1;entryDx=0;entryDy=0;endArrow=none;endFill=0;fillColor=#000000;" edge="1" parent="1" source="d_-2GbY-tVZR_mkNFV36-32" target="d_-2GbY-tVZR_mkNFV36-62">
          <mxGeometry relative="1" as="geometry" />
        </mxCell>
        <mxCell id="d_-2GbY-tVZR_mkNFV36-30" style="edgeStyle=orthogonalEdgeStyle;rounded=0;orthogonalLoop=1;jettySize=auto;html=1;exitX=0.25;exitY=0;exitDx=0;exitDy=0;entryX=0.5;entryY=1;entryDx=0;entryDy=0;endArrow=none;endFill=0;fillColor=#000000;" edge="1" parent="1" source="d_-2GbY-tVZR_mkNFV36-32" target="d_-2GbY-tVZR_mkNFV36-67">
          <mxGeometry relative="1" as="geometry" />
        </mxCell>
        <mxCell id="d_-2GbY-tVZR_mkNFV36-31" style="edgeStyle=orthogonalEdgeStyle;rounded=0;orthogonalLoop=1;jettySize=auto;html=1;exitX=1;exitY=0;exitDx=0;exitDy=0;entryX=0.5;entryY=1;entryDx=0;entryDy=0;endArrow=none;endFill=0;fillColor=#000000;" edge="1" parent="1" source="d_-2GbY-tVZR_mkNFV36-32" target="d_-2GbY-tVZR_mkNFV36-69">
          <mxGeometry relative="1" as="geometry" />
        </mxCell>
        <mxCell id="d_-2GbY-tVZR_mkNFV36-183" style="edgeStyle=orthogonalEdgeStyle;rounded=0;orthogonalLoop=1;jettySize=auto;html=1;exitX=0.5;exitY=1;exitDx=0;exitDy=0;endArrow=none;endFill=0;entryX=0.5;entryY=0;entryDx=0;entryDy=0;" edge="1" parent="1" source="d_-2GbY-tVZR_mkNFV36-32" target="d_-2GbY-tVZR_mkNFV36-184">
          <mxGeometry relative="1" as="geometry">
            <mxPoint x="520.0000000000001" y="710" as="targetPoint" />
          </mxGeometry>
        </mxCell>
        <mxCell id="d_-2GbY-tVZR_mkNFV36-32" value="Piscina" style="whiteSpace=wrap;html=1;align=center;" vertex="1" parent="1">
          <mxGeometry x="470" y="645" width="100" height="40" as="geometry" />
        </mxCell>
        <mxCell id="d_-2GbY-tVZR_mkNFV36-41" style="edgeStyle=orthogonalEdgeStyle;rounded=0;orthogonalLoop=1;jettySize=auto;html=1;exitX=0.5;exitY=1;exitDx=0;exitDy=0;entryX=0.5;entryY=0;entryDx=0;entryDy=0;endArrow=none;endFill=0;fillColor=#000000;" edge="1" parent="1" source="d_-2GbY-tVZR_mkNFV36-43" target="d_-2GbY-tVZR_mkNFV36-32">
          <mxGeometry relative="1" as="geometry" />
        </mxCell>
        <mxCell id="d_-2GbY-tVZR_mkNFV36-42" style="edgeStyle=orthogonalEdgeStyle;rounded=0;orthogonalLoop=1;jettySize=auto;html=1;exitX=1;exitY=1;exitDx=0;exitDy=0;entryX=0;entryY=0.5;entryDx=0;entryDy=0;endArrow=none;endFill=0;fillColor=#000000;" edge="1" parent="1" source="d_-2GbY-tVZR_mkNFV36-43" target="d_-2GbY-tVZR_mkNFV36-58">
          <mxGeometry relative="1" as="geometry">
            <Array as="points">
              <mxPoint x="550" y="420" />
            </Array>
          </mxGeometry>
        </mxCell>
        <mxCell id="d_-2GbY-tVZR_mkNFV36-43" value="Ultima visita" style="shape=rhombus;perimeter=rhombusPerimeter;whiteSpace=wrap;html=1;align=center;" vertex="1" parent="1">
          <mxGeometry x="460" y="365" width="120" height="60" as="geometry" />
        </mxCell>
        <mxCell id="d_-2GbY-tVZR_mkNFV36-44" style="edgeStyle=orthogonalEdgeStyle;rounded=0;orthogonalLoop=1;jettySize=auto;html=1;exitX=0.5;exitY=1;exitDx=0;exitDy=0;entryX=0;entryY=0.5;entryDx=0;entryDy=0;endArrow=none;endFill=0;fillColor=#000000;" edge="1" parent="1" source="d_-2GbY-tVZR_mkNFV36-45" target="d_-2GbY-tVZR_mkNFV36-32">
          <mxGeometry relative="1" as="geometry" />
        </mxCell>
        <mxCell id="d_-2GbY-tVZR_mkNFV36-45" value="Accede" style="shape=rhombus;perimeter=rhombusPerimeter;whiteSpace=wrap;html=1;align=center;" vertex="1" parent="1">
          <mxGeometry x="290" y="365" width="120" height="60" as="geometry" />
        </mxCell>
        <mxCell id="d_-2GbY-tVZR_mkNFV36-46" style="edgeStyle=orthogonalEdgeStyle;rounded=0;orthogonalLoop=1;jettySize=auto;html=1;exitX=0;exitY=0.5;exitDx=0;exitDy=0;entryX=1;entryY=0.25;entryDx=0;entryDy=0;endArrow=none;endFill=0;fillColor=#000000;" edge="1" parent="1" source="d_-2GbY-tVZR_mkNFV36-47" target="d_-2GbY-tVZR_mkNFV36-32">
          <mxGeometry relative="1" as="geometry" />
        </mxCell>
        <mxCell id="d_-2GbY-tVZR_mkNFV36-47" value="Location" style="shape=rhombus;perimeter=rhombusPerimeter;whiteSpace=wrap;html=1;align=center;" vertex="1" parent="1">
          <mxGeometry x="840" y="515" width="120" height="60" as="geometry" />
        </mxCell>
        <mxCell id="d_-2GbY-tVZR_mkNFV36-48" style="edgeStyle=orthogonalEdgeStyle;rounded=0;orthogonalLoop=1;jettySize=auto;html=1;exitX=1;exitY=0.5;exitDx=0;exitDy=0;entryX=0;entryY=0.5;entryDx=0;entryDy=0;endArrow=none;endFill=0;fillColor=#000000;" edge="1" parent="1" source="d_-2GbY-tVZR_mkNFV36-50" target="d_-2GbY-tVZR_mkNFV36-52">
          <mxGeometry relative="1" as="geometry" />
        </mxCell>
        <mxCell id="d_-2GbY-tVZR_mkNFV36-49" style="edgeStyle=orthogonalEdgeStyle;rounded=0;orthogonalLoop=1;jettySize=auto;html=1;exitX=0.5;exitY=0;exitDx=0;exitDy=0;entryX=0.5;entryY=1;entryDx=0;entryDy=0;endArrow=none;endFill=0;fillColor=#000000;" edge="1" parent="1" source="d_-2GbY-tVZR_mkNFV36-50" target="d_-2GbY-tVZR_mkNFV36-91">
          <mxGeometry relative="1" as="geometry" />
        </mxCell>
        <mxCell id="d_-2GbY-tVZR_mkNFV36-174" style="edgeStyle=orthogonalEdgeStyle;rounded=0;orthogonalLoop=1;jettySize=auto;html=1;exitX=0.25;exitY=1;exitDx=0;exitDy=0;entryX=0.5;entryY=0;entryDx=0;entryDy=0;endArrow=none;endFill=0;" edge="1" parent="1" source="d_-2GbY-tVZR_mkNFV36-50" target="d_-2GbY-tVZR_mkNFV36-147">
          <mxGeometry relative="1" as="geometry" />
        </mxCell>
        <mxCell id="d_-2GbY-tVZR_mkNFV36-175" style="edgeStyle=orthogonalEdgeStyle;rounded=0;orthogonalLoop=1;jettySize=auto;html=1;exitX=0.75;exitY=1;exitDx=0;exitDy=0;endArrow=none;endFill=0;" edge="1" parent="1" source="d_-2GbY-tVZR_mkNFV36-50">
          <mxGeometry relative="1" as="geometry">
            <mxPoint x="1035.111111111111" y="720" as="targetPoint" />
          </mxGeometry>
        </mxCell>
        <mxCell id="d_-2GbY-tVZR_mkNFV36-50" value="Impiego" style="whiteSpace=wrap;html=1;align=center;" vertex="1" parent="1">
          <mxGeometry x="960" y="655" width="100" height="40" as="geometry" />
        </mxCell>
        <mxCell id="d_-2GbY-tVZR_mkNFV36-51" style="edgeStyle=orthogonalEdgeStyle;rounded=0;orthogonalLoop=1;jettySize=auto;html=1;exitX=0.5;exitY=0;exitDx=0;exitDy=0;entryX=1;entryY=0.5;entryDx=0;entryDy=0;endArrow=none;endFill=0;fillColor=#000000;" edge="1" parent="1" source="d_-2GbY-tVZR_mkNFV36-52" target="d_-2GbY-tVZR_mkNFV36-25">
          <mxGeometry relative="1" as="geometry" />
        </mxCell>
        <mxCell id="d_-2GbY-tVZR_mkNFV36-52" value="Impiegato" style="shape=rhombus;perimeter=rhombusPerimeter;whiteSpace=wrap;html=1;align=center;" vertex="1" parent="1">
          <mxGeometry x="1190" y="645" width="120" height="60" as="geometry" />
        </mxCell>
        <mxCell id="d_-2GbY-tVZR_mkNFV36-53" style="edgeStyle=orthogonalEdgeStyle;rounded=0;orthogonalLoop=1;jettySize=auto;html=1;exitX=1;exitY=0.5;exitDx=0;exitDy=0;entryX=0;entryY=0.5;entryDx=0;entryDy=0;endArrow=none;endFill=0;fillColor=#000000;" edge="1" parent="1" source="d_-2GbY-tVZR_mkNFV36-54" target="d_-2GbY-tVZR_mkNFV36-50">
          <mxGeometry relative="1" as="geometry" />
        </mxCell>
        <mxCell id="d_-2GbY-tVZR_mkNFV36-54" value="Impiegante" style="shape=rhombus;perimeter=rhombusPerimeter;whiteSpace=wrap;html=1;align=center;" vertex="1" parent="1">
          <mxGeometry x="750" y="645" width="120" height="60" as="geometry" />
        </mxCell>
        <mxCell id="d_-2GbY-tVZR_mkNFV36-55" value="(1,n)" style="text;html=1;align=center;verticalAlign=middle;resizable=0;points=[];autosize=1;strokeColor=none;fillColor=none;" vertex="1" parent="1">
          <mxGeometry x="620" y="255" width="40" height="20" as="geometry" />
        </mxCell>
        <mxCell id="d_-2GbY-tVZR_mkNFV36-56" value="(1,1)" style="text;html=1;align=center;verticalAlign=middle;resizable=0;points=[];autosize=1;strokeColor=none;fillColor=none;" vertex="1" parent="1">
          <mxGeometry x="440" y="315" width="40" height="20" as="geometry" />
        </mxCell>
        <mxCell id="d_-2GbY-tVZR_mkNFV36-57" value="(0,n)" style="text;html=1;align=center;verticalAlign=middle;resizable=0;points=[];autosize=1;strokeColor=none;fillColor=none;" vertex="1" parent="1">
          <mxGeometry x="520" y="440" width="40" height="20" as="geometry" />
        </mxCell>
        <mxCell id="d_-2GbY-tVZR_mkNFV36-58" value="" style="ellipse;whiteSpace=wrap;html=1;aspect=fixed;" vertex="1" parent="1">
          <mxGeometry x="580" y="415" width="10" height="10" as="geometry" />
        </mxCell>
        <mxCell id="d_-2GbY-tVZR_mkNFV36-59" value="Data" style="text;html=1;align=center;verticalAlign=middle;resizable=0;points=[];autosize=1;strokeColor=none;fillColor=none;" vertex="1" parent="1">
          <mxGeometry x="590" y="410" width="40" height="20" as="geometry" />
        </mxCell>
        <mxCell id="d_-2GbY-tVZR_mkNFV36-60" value="(0,n)" style="text;html=1;align=center;verticalAlign=middle;resizable=0;points=[];autosize=1;strokeColor=none;fillColor=none;" vertex="1" parent="1">
          <mxGeometry x="420" y="160" width="40" height="20" as="geometry" />
        </mxCell>
        <mxCell id="d_-2GbY-tVZR_mkNFV36-61" value="(0,n)" style="text;html=1;align=center;verticalAlign=middle;resizable=0;points=[];autosize=1;strokeColor=none;fillColor=none;" vertex="1" parent="1">
          <mxGeometry x="430" y="665" width="40" height="20" as="geometry" />
        </mxCell>
        <mxCell id="d_-2GbY-tVZR_mkNFV36-62" value="" style="ellipse;whiteSpace=wrap;html=1;aspect=fixed;" vertex="1" parent="1">
          <mxGeometry x="440" y="610" width="10" height="10" as="geometry" />
        </mxCell>
        <mxCell id="d_-2GbY-tVZR_mkNFV36-63" style="edgeStyle=orthogonalEdgeStyle;rounded=0;orthogonalLoop=1;jettySize=auto;html=1;exitX=0.5;exitY=1;exitDx=0;exitDy=0;entryX=0.953;entryY=0.014;entryDx=0;entryDy=0;entryPerimeter=0;endArrow=none;endFill=0;fillColor=#000000;" edge="1" parent="1" source="d_-2GbY-tVZR_mkNFV36-64">
          <mxGeometry relative="1" as="geometry">
            <mxPoint x="535.3000000000002" y="645.56" as="targetPoint" />
          </mxGeometry>
        </mxCell>
        <mxCell id="d_-2GbY-tVZR_mkNFV36-64" value="" style="ellipse;whiteSpace=wrap;html=1;aspect=fixed;fillColor=#000000;" vertex="1" parent="1">
          <mxGeometry x="530" y="610" width="10" height="10" as="geometry" />
        </mxCell>
        <mxCell id="d_-2GbY-tVZR_mkNFV36-65" value="Nome_P" style="text;html=1;align=center;verticalAlign=middle;resizable=0;points=[];autosize=1;strokeColor=none;fillColor=none;" vertex="1" parent="1">
          <mxGeometry x="515" y="590" width="60" height="20" as="geometry" />
        </mxCell>
        <mxCell id="d_-2GbY-tVZR_mkNFV36-66" value="Indirizzo" style="text;html=1;align=center;verticalAlign=middle;resizable=0;points=[];autosize=1;strokeColor=none;fillColor=none;" vertex="1" parent="1">
          <mxGeometry x="410" y="590" width="60" height="20" as="geometry" />
        </mxCell>
        <mxCell id="d_-2GbY-tVZR_mkNFV36-67" value="" style="ellipse;whiteSpace=wrap;html=1;aspect=fixed;" vertex="1" parent="1">
          <mxGeometry x="490" y="610" width="10" height="10" as="geometry" />
        </mxCell>
        <mxCell id="d_-2GbY-tVZR_mkNFV36-68" value="Telefono" style="text;html=1;align=center;verticalAlign=middle;resizable=0;points=[];autosize=1;strokeColor=none;fillColor=none;" vertex="1" parent="1">
          <mxGeometry x="460" y="590" width="60" height="20" as="geometry" />
        </mxCell>
        <mxCell id="d_-2GbY-tVZR_mkNFV36-69" value="" style="ellipse;whiteSpace=wrap;html=1;aspect=fixed;" vertex="1" parent="1">
          <mxGeometry x="580" y="610" width="10" height="10" as="geometry" />
        </mxCell>
        <mxCell id="d_-2GbY-tVZR_mkNFV36-70" value="Responsabile" style="text;html=1;align=center;verticalAlign=middle;resizable=0;points=[];autosize=1;strokeColor=none;fillColor=none;" vertex="1" parent="1">
          <mxGeometry x="570" y="590" width="90" height="20" as="geometry" />
        </mxCell>
        <mxCell id="d_-2GbY-tVZR_mkNFV36-91" value="" style="ellipse;whiteSpace=wrap;html=1;aspect=fixed;" vertex="1" parent="1">
          <mxGeometry x="1005" y="620" width="10" height="10" as="geometry" />
        </mxCell>
        <mxCell id="d_-2GbY-tVZR_mkNFV36-92" value="" style="endArrow=none;html=1;rounded=0;fillColor=#000000;" edge="1" parent="1">
          <mxGeometry width="50" height="50" relative="1" as="geometry">
            <mxPoint x="950" y="690" as="sourcePoint" />
            <mxPoint x="950" y="640" as="targetPoint" />
          </mxGeometry>
        </mxCell>
        <mxCell id="d_-2GbY-tVZR_mkNFV36-93" value="" style="endArrow=none;html=1;rounded=0;fillColor=#000000;" edge="1" parent="1">
          <mxGeometry width="50" height="50" relative="1" as="geometry">
            <mxPoint x="1070" y="690" as="sourcePoint" />
            <mxPoint x="1070" y="640" as="targetPoint" />
          </mxGeometry>
        </mxCell>
        <mxCell id="d_-2GbY-tVZR_mkNFV36-94" value="" style="endArrow=none;html=1;rounded=0;fillColor=#000000;" edge="1" parent="1">
          <mxGeometry width="50" height="50" relative="1" as="geometry">
            <mxPoint x="1070" y="640" as="sourcePoint" />
            <mxPoint x="950" y="640" as="targetPoint" />
          </mxGeometry>
        </mxCell>
        <mxCell id="d_-2GbY-tVZR_mkNFV36-95" value="" style="ellipse;whiteSpace=wrap;html=1;aspect=fixed;fillColor=#000000;" vertex="1" parent="1">
          <mxGeometry x="945" y="685" width="10" height="10" as="geometry" />
        </mxCell>
        <mxCell id="d_-2GbY-tVZR_mkNFV36-96" value="Data_inizio" style="text;html=1;align=center;verticalAlign=middle;resizable=0;points=[];autosize=1;strokeColor=none;fillColor=none;" vertex="1" parent="1">
          <mxGeometry x="975" y="600" width="70" height="20" as="geometry" />
        </mxCell>
        <mxCell id="d_-2GbY-tVZR_mkNFV36-97" value="" style="ellipse;whiteSpace=wrap;html=1;aspect=fixed;fillColor=#000000;" vertex="1" parent="1">
          <mxGeometry x="465" y="125" width="10" height="10" as="geometry" />
        </mxCell>
        <mxCell id="d_-2GbY-tVZR_mkNFV36-98" value="" style="edgeStyle=orthogonalEdgeStyle;rounded=0;orthogonalLoop=1;jettySize=auto;html=1;endArrow=none;endFill=0;fillColor=#000000;" edge="1" parent="1" source="d_-2GbY-tVZR_mkNFV36-99" target="d_-2GbY-tVZR_mkNFV36-5">
          <mxGeometry relative="1" as="geometry" />
        </mxCell>
        <mxCell id="d_-2GbY-tVZR_mkNFV36-99" value="" style="ellipse;whiteSpace=wrap;html=1;aspect=fixed;" vertex="1" parent="1">
          <mxGeometry x="515" y="125" width="10" height="10" as="geometry" />
        </mxCell>
        <mxCell id="d_-2GbY-tVZR_mkNFV36-100" value="CF_U" style="text;html=1;align=center;verticalAlign=middle;resizable=0;points=[];autosize=1;strokeColor=none;fillColor=none;" vertex="1" parent="1">
          <mxGeometry x="445" y="100" width="50" height="20" as="geometry" />
        </mxCell>
        <mxCell id="d_-2GbY-tVZR_mkNFV36-101" value="" style="ellipse;whiteSpace=wrap;html=1;aspect=fixed;" vertex="1" parent="1">
          <mxGeometry x="565" y="125" width="10" height="10" as="geometry" />
        </mxCell>
        <mxCell id="d_-2GbY-tVZR_mkNFV36-102" value="Nome_U" style="text;html=1;align=center;verticalAlign=middle;resizable=0;points=[];autosize=1;strokeColor=none;fillColor=none;" vertex="1" parent="1">
          <mxGeometry x="490" y="100" width="60" height="20" as="geometry" />
        </mxCell>
        <mxCell id="d_-2GbY-tVZR_mkNFV36-103" value="Indirizzo" style="text;html=1;align=center;verticalAlign=middle;resizable=0;points=[];autosize=1;strokeColor=none;fillColor=none;" vertex="1" parent="1">
          <mxGeometry x="540" y="100" width="60" height="20" as="geometry" />
        </mxCell>
        <mxCell id="d_-2GbY-tVZR_mkNFV36-104" value="" style="ellipse;whiteSpace=wrap;html=1;aspect=fixed;" vertex="1" parent="1">
          <mxGeometry x="620" y="125" width="10" height="10" as="geometry" />
        </mxCell>
        <mxCell id="d_-2GbY-tVZR_mkNFV36-105" value="Contatti" style="text;html=1;align=center;verticalAlign=middle;resizable=0;points=[];autosize=1;strokeColor=none;fillColor=none;" vertex="1" parent="1">
          <mxGeometry x="630" y="120" width="60" height="20" as="geometry" />
        </mxCell>
        <mxCell id="d_-2GbY-tVZR_mkNFV36-106" value="" style="ellipse;whiteSpace=wrap;html=1;aspect=fixed;" vertex="1" parent="1">
          <mxGeometry x="595" y="70" width="10" height="10" as="geometry" />
        </mxCell>
        <mxCell id="d_-2GbY-tVZR_mkNFV36-107" value="" style="ellipse;whiteSpace=wrap;html=1;aspect=fixed;" vertex="1" parent="1">
          <mxGeometry x="640" y="70" width="10" height="10" as="geometry" />
        </mxCell>
        <mxCell id="d_-2GbY-tVZR_mkNFV36-108" value="" style="endArrow=none;html=1;rounded=0;fillColor=#000000;exitX=0.5;exitY=0;exitDx=0;exitDy=0;entryX=0.5;entryY=1;entryDx=0;entryDy=0;" edge="1" parent="1" source="d_-2GbY-tVZR_mkNFV36-104" target="d_-2GbY-tVZR_mkNFV36-107">
          <mxGeometry width="50" height="50" relative="1" as="geometry">
            <mxPoint x="590" y="130" as="sourcePoint" />
            <mxPoint x="640" y="80" as="targetPoint" />
          </mxGeometry>
        </mxCell>
        <mxCell id="d_-2GbY-tVZR_mkNFV36-109" value="" style="endArrow=none;html=1;rounded=0;fillColor=#000000;exitX=0.5;exitY=0;exitDx=0;exitDy=0;" edge="1" parent="1" source="d_-2GbY-tVZR_mkNFV36-104">
          <mxGeometry width="50" height="50" relative="1" as="geometry">
            <mxPoint x="585" y="124.99999999999997" as="sourcePoint" />
            <mxPoint x="600" y="80" as="targetPoint" />
          </mxGeometry>
        </mxCell>
        <mxCell id="d_-2GbY-tVZR_mkNFV36-110" value="Mezzo" style="text;html=1;align=center;verticalAlign=middle;resizable=0;points=[];autosize=1;strokeColor=none;fillColor=none;" vertex="1" parent="1">
          <mxGeometry x="575" y="50" width="50" height="20" as="geometry" />
        </mxCell>
        <mxCell id="d_-2GbY-tVZR_mkNFV36-111" value="Recapito" style="text;html=1;align=center;verticalAlign=middle;resizable=0;points=[];autosize=1;strokeColor=none;fillColor=none;" vertex="1" parent="1">
          <mxGeometry x="620" y="50" width="60" height="20" as="geometry" />
        </mxCell>
        <mxCell id="d_-2GbY-tVZR_mkNFV36-112" value="(1,n)" style="text;html=1;align=center;verticalAlign=middle;resizable=0;points=[];autosize=1;strokeColor=none;fillColor=none;" vertex="1" parent="1">
          <mxGeometry x="575" y="155" width="40" height="20" as="geometry" />
        </mxCell>
        <mxCell id="d_-2GbY-tVZR_mkNFV36-113" style="edgeStyle=orthogonalEdgeStyle;rounded=0;orthogonalLoop=1;jettySize=auto;html=1;exitX=0.5;exitY=1;exitDx=0;exitDy=0;entryX=0;entryY=0.25;entryDx=0;entryDy=0;endArrow=none;endFill=0;fillColor=#000000;" edge="1" parent="1" source="d_-2GbY-tVZR_mkNFV36-114" target="d_-2GbY-tVZR_mkNFV36-20">
          <mxGeometry relative="1" as="geometry" />
        </mxCell>
        <mxCell id="d_-2GbY-tVZR_mkNFV36-114" value="" style="ellipse;whiteSpace=wrap;html=1;aspect=fixed;" vertex="1" parent="1">
          <mxGeometry x="800" y="300" width="10" height="10" as="geometry" />
        </mxCell>
        <mxCell id="d_-2GbY-tVZR_mkNFV36-115" style="edgeStyle=orthogonalEdgeStyle;rounded=0;orthogonalLoop=1;jettySize=auto;html=1;exitX=0.5;exitY=1;exitDx=0;exitDy=0;entryX=0;entryY=0;entryDx=0;entryDy=0;endArrow=none;endFill=0;fillColor=#000000;" edge="1" parent="1" source="d_-2GbY-tVZR_mkNFV36-116" target="d_-2GbY-tVZR_mkNFV36-20">
          <mxGeometry relative="1" as="geometry">
            <Array as="points">
              <mxPoint x="840" y="345" />
            </Array>
          </mxGeometry>
        </mxCell>
        <mxCell id="d_-2GbY-tVZR_mkNFV36-116" value="" style="ellipse;whiteSpace=wrap;html=1;aspect=fixed;" vertex="1" parent="1">
          <mxGeometry x="835" y="300" width="10" height="10" as="geometry" />
        </mxCell>
        <mxCell id="d_-2GbY-tVZR_mkNFV36-117" style="edgeStyle=orthogonalEdgeStyle;rounded=0;orthogonalLoop=1;jettySize=auto;html=1;exitX=0.5;exitY=1;exitDx=0;exitDy=0;entryX=0.25;entryY=0;entryDx=0;entryDy=0;endArrow=none;endFill=0;fillColor=#000000;" edge="1" parent="1" source="d_-2GbY-tVZR_mkNFV36-118" target="d_-2GbY-tVZR_mkNFV36-20">
          <mxGeometry relative="1" as="geometry" />
        </mxCell>
        <mxCell id="d_-2GbY-tVZR_mkNFV36-118" value="" style="ellipse;whiteSpace=wrap;html=1;aspect=fixed;" vertex="1" parent="1">
          <mxGeometry x="870" y="300" width="10" height="10" as="geometry" />
        </mxCell>
        <mxCell id="d_-2GbY-tVZR_mkNFV36-119" style="edgeStyle=orthogonalEdgeStyle;rounded=0;orthogonalLoop=1;jettySize=auto;html=1;exitX=0.5;exitY=1;exitDx=0;exitDy=0;entryX=0.654;entryY=0.015;entryDx=0;entryDy=0;entryPerimeter=0;endArrow=none;endFill=0;fillColor=#000000;" edge="1" parent="1" source="d_-2GbY-tVZR_mkNFV36-120" target="d_-2GbY-tVZR_mkNFV36-20">
          <mxGeometry relative="1" as="geometry" />
        </mxCell>
        <mxCell id="d_-2GbY-tVZR_mkNFV36-120" value="" style="ellipse;whiteSpace=wrap;html=1;aspect=fixed;" vertex="1" parent="1">
          <mxGeometry x="910" y="300" width="10" height="10" as="geometry" />
        </mxCell>
        <mxCell id="d_-2GbY-tVZR_mkNFV36-121" value="Costo" style="text;html=1;align=center;verticalAlign=middle;resizable=0;points=[];autosize=1;strokeColor=none;fillColor=none;" vertex="1" parent="1">
          <mxGeometry x="775" y="280" width="50" height="20" as="geometry" />
        </mxCell>
        <mxCell id="d_-2GbY-tVZR_mkNFV36-122" value="Min_p" style="text;html=1;align=center;verticalAlign=middle;resizable=0;points=[];autosize=1;strokeColor=none;fillColor=none;" vertex="1" parent="1">
          <mxGeometry x="815" y="280" width="50" height="20" as="geometry" />
        </mxCell>
        <mxCell id="d_-2GbY-tVZR_mkNFV36-123" value="Max_p" style="text;html=1;align=center;verticalAlign=middle;resizable=0;points=[];autosize=1;strokeColor=none;fillColor=none;" vertex="1" parent="1">
          <mxGeometry x="855" y="280" width="50" height="20" as="geometry" />
        </mxCell>
        <mxCell id="d_-2GbY-tVZR_mkNFV36-124" value="Ora" style="text;html=1;align=center;verticalAlign=middle;resizable=0;points=[];autosize=1;strokeColor=none;fillColor=none;" vertex="1" parent="1">
          <mxGeometry x="895" y="280" width="40" height="20" as="geometry" />
        </mxCell>
        <mxCell id="d_-2GbY-tVZR_mkNFV36-125" style="edgeStyle=orthogonalEdgeStyle;rounded=0;orthogonalLoop=1;jettySize=auto;html=1;exitX=0.5;exitY=1;exitDx=0;exitDy=0;endArrow=none;endFill=0;fillColor=#000000;" edge="1" parent="1" source="d_-2GbY-tVZR_mkNFV36-126">
          <mxGeometry relative="1" as="geometry">
            <mxPoint x="950" y="350" as="targetPoint" />
          </mxGeometry>
        </mxCell>
        <mxCell id="d_-2GbY-tVZR_mkNFV36-126" value="" style="ellipse;whiteSpace=wrap;html=1;aspect=fixed;" vertex="1" parent="1">
          <mxGeometry x="945" y="300" width="10" height="10" as="geometry" />
        </mxCell>
        <mxCell id="d_-2GbY-tVZR_mkNFV36-127" value="Giorno" style="text;html=1;align=center;verticalAlign=middle;resizable=0;points=[];autosize=1;strokeColor=none;fillColor=none;" vertex="1" parent="1">
          <mxGeometry x="925" y="280" width="50" height="20" as="geometry" />
        </mxCell>
        <mxCell id="d_-2GbY-tVZR_mkNFV36-128" style="edgeStyle=orthogonalEdgeStyle;rounded=0;orthogonalLoop=1;jettySize=auto;html=1;exitX=0.5;exitY=1;exitDx=0;exitDy=0;entryX=1;entryY=0.25;entryDx=0;entryDy=0;endArrow=none;endFill=0;fillColor=#000000;" edge="1" parent="1" source="d_-2GbY-tVZR_mkNFV36-129" target="d_-2GbY-tVZR_mkNFV36-20">
          <mxGeometry relative="1" as="geometry" />
        </mxCell>
        <mxCell id="d_-2GbY-tVZR_mkNFV36-129" value="" style="ellipse;whiteSpace=wrap;html=1;aspect=fixed;" vertex="1" parent="1">
          <mxGeometry x="985" y="300" width="10" height="10" as="geometry" />
        </mxCell>
        <mxCell id="d_-2GbY-tVZR_mkNFV36-130" value="Attività" style="text;html=1;align=center;verticalAlign=middle;resizable=0;points=[];autosize=1;strokeColor=none;fillColor=none;" vertex="1" parent="1">
          <mxGeometry x="965" y="280" width="50" height="20" as="geometry" />
        </mxCell>
        <mxCell id="d_-2GbY-tVZR_mkNFV36-131" value="" style="ellipse;whiteSpace=wrap;html=1;aspect=fixed;" vertex="1" parent="1">
          <mxGeometry x="920" y="410" width="10" height="10" as="geometry" />
        </mxCell>
        <mxCell id="d_-2GbY-tVZR_mkNFV36-132" value="ID_Corso" style="text;html=1;align=center;verticalAlign=middle;resizable=0;points=[];autosize=1;strokeColor=none;fillColor=none;" vertex="1" parent="1">
          <mxGeometry x="900" y="420" width="70" height="20" as="geometry" />
        </mxCell>
        <mxCell id="d_-2GbY-tVZR_mkNFV36-133" value="" style="endArrow=none;html=1;rounded=0;fillColor=#000000;" edge="1" parent="1">
          <mxGeometry width="50" height="50" relative="1" as="geometry">
            <mxPoint x="890" y="400" as="sourcePoint" />
            <mxPoint x="950" y="400" as="targetPoint" />
          </mxGeometry>
        </mxCell>
        <mxCell id="d_-2GbY-tVZR_mkNFV36-134" value="" style="ellipse;whiteSpace=wrap;html=1;aspect=fixed;fillColor=#000000;" vertex="1" parent="1">
          <mxGeometry x="880" y="395" width="10" height="10" as="geometry" />
        </mxCell>
        <mxCell id="d_-2GbY-tVZR_mkNFV36-135" style="edgeStyle=orthogonalEdgeStyle;rounded=0;orthogonalLoop=1;jettySize=auto;html=1;exitX=0.5;exitY=1;exitDx=0;exitDy=0;entryX=0;entryY=0.25;entryDx=0;entryDy=0;endArrow=none;endFill=0;fillColor=#000000;" edge="1" parent="1" source="d_-2GbY-tVZR_mkNFV36-136" target="d_-2GbY-tVZR_mkNFV36-25">
          <mxGeometry relative="1" as="geometry">
            <Array as="points">
              <mxPoint x="1045" y="255" />
            </Array>
          </mxGeometry>
        </mxCell>
        <mxCell id="d_-2GbY-tVZR_mkNFV36-136" value="" style="ellipse;whiteSpace=wrap;html=1;aspect=fixed;" vertex="1" parent="1">
          <mxGeometry x="1040" y="200" width="10" height="10" as="geometry" />
        </mxCell>
        <mxCell id="d_-2GbY-tVZR_mkNFV36-137" value="Qualifiche" style="text;html=1;align=center;verticalAlign=middle;resizable=0;points=[];autosize=1;strokeColor=none;fillColor=none;" vertex="1" parent="1">
          <mxGeometry x="995" y="180" width="70" height="20" as="geometry" />
        </mxCell>
        <mxCell id="d_-2GbY-tVZR_mkNFV36-138" value="(1,n)" style="text;html=1;align=center;verticalAlign=middle;resizable=0;points=[];autosize=1;strokeColor=none;fillColor=none;" vertex="1" parent="1">
          <mxGeometry x="1010" y="235" width="40" height="20" as="geometry" />
        </mxCell>
        <mxCell id="d_-2GbY-tVZR_mkNFV36-139" value="" style="ellipse;whiteSpace=wrap;html=1;aspect=fixed;fillColor=#000000;" vertex="1" parent="1">
          <mxGeometry x="1075" y="200" width="10" height="10" as="geometry" />
        </mxCell>
        <mxCell id="d_-2GbY-tVZR_mkNFV36-140" value="CF_I" style="text;html=1;align=center;verticalAlign=middle;resizable=0;points=[];autosize=1;strokeColor=none;fillColor=none;" vertex="1" parent="1">
          <mxGeometry x="1060" y="180" width="40" height="20" as="geometry" />
        </mxCell>
        <mxCell id="d_-2GbY-tVZR_mkNFV36-141" style="edgeStyle=orthogonalEdgeStyle;rounded=0;orthogonalLoop=1;jettySize=auto;html=1;exitX=0.5;exitY=1;exitDx=0;exitDy=0;entryX=0.646;entryY=-0.005;entryDx=0;entryDy=0;entryPerimeter=0;endArrow=none;endFill=0;fillColor=#000000;" edge="1" parent="1" source="d_-2GbY-tVZR_mkNFV36-142" target="d_-2GbY-tVZR_mkNFV36-25">
          <mxGeometry relative="1" as="geometry" />
        </mxCell>
        <mxCell id="d_-2GbY-tVZR_mkNFV36-142" value="" style="ellipse;whiteSpace=wrap;html=1;aspect=fixed;" vertex="1" parent="1">
          <mxGeometry x="1120" y="200" width="10" height="10" as="geometry" />
        </mxCell>
        <mxCell id="d_-2GbY-tVZR_mkNFV36-143" value="Cellulare" style="text;html=1;align=center;verticalAlign=middle;resizable=0;points=[];autosize=1;strokeColor=none;fillColor=none;" vertex="1" parent="1">
          <mxGeometry x="1095" y="180" width="60" height="20" as="geometry" />
        </mxCell>
        <mxCell id="d_-2GbY-tVZR_mkNFV36-144" value="" style="ellipse;whiteSpace=wrap;html=1;aspect=fixed;" vertex="1" parent="1">
          <mxGeometry x="1170" y="200" width="10" height="10" as="geometry" />
        </mxCell>
        <mxCell id="d_-2GbY-tVZR_mkNFV36-145" value="Nome_I" style="text;html=1;align=center;verticalAlign=middle;resizable=0;points=[];autosize=1;strokeColor=none;fillColor=none;" vertex="1" parent="1">
          <mxGeometry x="1150" y="180" width="60" height="20" as="geometry" />
        </mxCell>
        <mxCell id="d_-2GbY-tVZR_mkNFV36-146" value="(0,1)" style="text;html=1;align=center;verticalAlign=middle;resizable=0;points=[];autosize=1;strokeColor=none;fillColor=none;" vertex="1" parent="1">
          <mxGeometry x="1120" y="225" width="40" height="20" as="geometry" />
        </mxCell>
        <mxCell id="d_-2GbY-tVZR_mkNFV36-147" value="" style="ellipse;whiteSpace=wrap;html=1;aspect=fixed;" vertex="1" parent="1">
          <mxGeometry x="982" y="720" width="10" height="10" as="geometry" />
        </mxCell>
        <mxCell id="d_-2GbY-tVZR_mkNFV36-148" value="Data_fine" style="text;html=1;align=center;verticalAlign=middle;resizable=0;points=[];autosize=1;strokeColor=none;fillColor=none;" vertex="1" parent="1">
          <mxGeometry x="955" y="730" width="70" height="20" as="geometry" />
        </mxCell>
        <mxCell id="d_-2GbY-tVZR_mkNFV36-149" value="(0,n)" style="text;html=1;align=center;verticalAlign=middle;resizable=0;points=[];autosize=1;strokeColor=none;fillColor=none;" vertex="1" parent="1">
          <mxGeometry x="600" y="315" width="40" height="20" as="geometry" />
        </mxCell>
        <mxCell id="d_-2GbY-tVZR_mkNFV36-150" value="(0,n)" style="text;html=1;align=center;verticalAlign=middle;resizable=0;points=[];autosize=1;strokeColor=none;fillColor=none;" vertex="1" parent="1">
          <mxGeometry x="750" y="345" width="40" height="20" as="geometry" />
        </mxCell>
        <mxCell id="d_-2GbY-tVZR_mkNFV36-151" value="(1,n)" style="text;html=1;align=center;verticalAlign=middle;resizable=0;points=[];autosize=1;strokeColor=none;fillColor=none;" vertex="1" parent="1">
          <mxGeometry x="1010" y="345" width="40" height="20" as="geometry" />
        </mxCell>
        <mxCell id="d_-2GbY-tVZR_mkNFV36-152" value="(0,n)" style="text;html=1;align=center;verticalAlign=middle;resizable=0;points=[];autosize=1;strokeColor=none;fillColor=none;" vertex="1" parent="1">
          <mxGeometry x="1115" y="290" width="40" height="20" as="geometry" />
        </mxCell>
        <mxCell id="d_-2GbY-tVZR_mkNFV36-153" value="(0,n)" style="text;html=1;align=center;verticalAlign=middle;resizable=0;points=[];autosize=1;strokeColor=none;fillColor=none;" vertex="1" parent="1">
          <mxGeometry x="1205" y="270" width="40" height="20" as="geometry" />
        </mxCell>
        <mxCell id="d_-2GbY-tVZR_mkNFV36-154" value="(1,1)" style="text;html=1;align=center;verticalAlign=middle;resizable=0;points=[];autosize=1;strokeColor=none;fillColor=none;" vertex="1" parent="1">
          <mxGeometry x="1075" y="645" width="40" height="20" as="geometry" />
        </mxCell>
        <mxCell id="d_-2GbY-tVZR_mkNFV36-155" value="(1,1)" style="text;html=1;align=center;verticalAlign=middle;resizable=0;points=[];autosize=1;strokeColor=none;fillColor=none;" vertex="1" parent="1">
          <mxGeometry x="910" y="650" width="40" height="20" as="geometry" />
        </mxCell>
        <mxCell id="d_-2GbY-tVZR_mkNFV36-156" value="(0,n)" style="text;html=1;align=center;verticalAlign=middle;resizable=0;points=[];autosize=1;strokeColor=none;fillColor=none;" vertex="1" parent="1">
          <mxGeometry x="570" y="680" width="40" height="20" as="geometry" />
        </mxCell>
        <mxCell id="d_-2GbY-tVZR_mkNFV36-157" value="(0,n)" style="text;html=1;align=center;verticalAlign=middle;resizable=0;points=[];autosize=1;strokeColor=none;fillColor=none;" vertex="1" parent="1">
          <mxGeometry x="700" y="625" width="40" height="20" as="geometry" />
        </mxCell>
        <mxCell id="d_-2GbY-tVZR_mkNFV36-158" value="(1,1)" style="text;html=1;align=center;verticalAlign=middle;resizable=0;points=[];autosize=1;strokeColor=none;fillColor=none;" vertex="1" parent="1">
          <mxGeometry x="860" y="410" width="40" height="20" as="geometry" />
        </mxCell>
        <mxCell id="d_-2GbY-tVZR_mkNFV36-159" value="Certificato" style="whiteSpace=wrap;html=1;align=center;" vertex="1" parent="1">
          <mxGeometry x="820" y="90" width="100" height="40" as="geometry" />
        </mxCell>
        <mxCell id="d_-2GbY-tVZR_mkNFV36-160" style="edgeStyle=orthogonalEdgeStyle;rounded=0;orthogonalLoop=1;jettySize=auto;html=1;exitX=0.5;exitY=1;exitDx=0;exitDy=0;endArrow=none;endFill=0;fillColor=#000000;" edge="1" parent="1" source="d_-2GbY-tVZR_mkNFV36-161" target="d_-2GbY-tVZR_mkNFV36-159">
          <mxGeometry relative="1" as="geometry" />
        </mxCell>
        <mxCell id="d_-2GbY-tVZR_mkNFV36-161" value="" style="ellipse;whiteSpace=wrap;html=1;aspect=fixed;" vertex="1" parent="1">
          <mxGeometry x="865" y="45" width="10" height="10" as="geometry" />
        </mxCell>
        <mxCell id="d_-2GbY-tVZR_mkNFV36-162" style="edgeStyle=orthogonalEdgeStyle;rounded=0;orthogonalLoop=1;jettySize=auto;html=1;exitX=0.5;exitY=1;exitDx=0;exitDy=0;entryX=0.957;entryY=0.025;entryDx=0;entryDy=0;entryPerimeter=0;endArrow=none;endFill=0;fillColor=#000000;" edge="1" parent="1" source="d_-2GbY-tVZR_mkNFV36-163" target="d_-2GbY-tVZR_mkNFV36-159">
          <mxGeometry relative="1" as="geometry" />
        </mxCell>
        <mxCell id="d_-2GbY-tVZR_mkNFV36-163" value="" style="ellipse;whiteSpace=wrap;html=1;aspect=fixed;" vertex="1" parent="1">
          <mxGeometry x="910" y="45" width="10" height="10" as="geometry" />
        </mxCell>
        <mxCell id="d_-2GbY-tVZR_mkNFV36-164" value="Medico" style="text;html=1;align=center;verticalAlign=middle;resizable=0;points=[];autosize=1;strokeColor=none;fillColor=none;" vertex="1" parent="1">
          <mxGeometry x="895" y="25" width="50" height="20" as="geometry" />
        </mxCell>
        <mxCell id="d_-2GbY-tVZR_mkNFV36-165" value="Età" style="text;html=1;align=center;verticalAlign=middle;resizable=0;points=[];autosize=1;strokeColor=none;fillColor=none;" vertex="1" parent="1">
          <mxGeometry x="855" y="25" width="30" height="20" as="geometry" />
        </mxCell>
        <mxCell id="d_-2GbY-tVZR_mkNFV36-166" value="(1,1)" style="text;html=1;align=center;verticalAlign=middle;resizable=0;points=[];autosize=1;strokeColor=none;fillColor=none;" vertex="1" parent="1">
          <mxGeometry x="780" y="110" width="40" height="20" as="geometry" />
        </mxCell>
        <mxCell id="d_-2GbY-tVZR_mkNFV36-167" style="edgeStyle=orthogonalEdgeStyle;rounded=0;orthogonalLoop=1;jettySize=auto;html=1;exitX=0.5;exitY=1;exitDx=0;exitDy=0;entryX=0.051;entryY=0.021;entryDx=0;entryDy=0;entryPerimeter=0;endArrow=none;endFill=0;" edge="1" parent="1" source="d_-2GbY-tVZR_mkNFV36-168" target="d_-2GbY-tVZR_mkNFV36-159">
          <mxGeometry relative="1" as="geometry" />
        </mxCell>
        <mxCell id="d_-2GbY-tVZR_mkNFV36-168" value="" style="ellipse;whiteSpace=wrap;html=1;aspect=fixed;" vertex="1" parent="1">
          <mxGeometry x="820" y="45" width="10" height="10" as="geometry" />
        </mxCell>
        <mxCell id="d_-2GbY-tVZR_mkNFV36-169" value="Data_consegna" style="text;html=1;align=center;verticalAlign=middle;resizable=0;points=[];autosize=1;strokeColor=none;fillColor=none;" vertex="1" parent="1">
          <mxGeometry x="765" y="25" width="100" height="20" as="geometry" />
        </mxCell>
        <mxCell id="d_-2GbY-tVZR_mkNFV36-170" value="" style="endArrow=none;html=1;rounded=0;" edge="1" parent="1">
          <mxGeometry width="50" height="50" relative="1" as="geometry">
            <mxPoint x="780" y="135" as="sourcePoint" />
            <mxPoint x="780" y="75" as="targetPoint" />
          </mxGeometry>
        </mxCell>
        <mxCell id="d_-2GbY-tVZR_mkNFV36-171" value="" style="endArrow=none;html=1;rounded=0;" edge="1" parent="1">
          <mxGeometry width="50" height="50" relative="1" as="geometry">
            <mxPoint x="840" y="75" as="sourcePoint" />
            <mxPoint x="780" y="75" as="targetPoint" />
          </mxGeometry>
        </mxCell>
        <mxCell id="d_-2GbY-tVZR_mkNFV36-172" value="" style="ellipse;whiteSpace=wrap;html=1;aspect=fixed;fillColor=#000000;" vertex="1" parent="1">
          <mxGeometry x="775" y="130" width="10" height="10" as="geometry" />
        </mxCell>
        <mxCell id="d_-2GbY-tVZR_mkNFV36-176" value="" style="ellipse;whiteSpace=wrap;html=1;aspect=fixed;" vertex="1" parent="1">
          <mxGeometry x="1030" y="720" width="10" height="10" as="geometry" />
        </mxCell>
        <mxCell id="d_-2GbY-tVZR_mkNFV36-178" value="Tipo" style="text;html=1;align=center;verticalAlign=middle;resizable=0;points=[];autosize=1;strokeColor=none;fillColor=none;" vertex="1" parent="1">
          <mxGeometry x="1020" y="730" width="40" height="20" as="geometry" />
        </mxCell>
        <mxCell id="d_-2GbY-tVZR_mkNFV36-179" value="(0,1)" style="text;html=1;align=center;verticalAlign=middle;resizable=0;points=[];autosize=1;strokeColor=none;fillColor=none;" vertex="1" parent="1">
          <mxGeometry x="952" y="695" width="40" height="20" as="geometry" />
        </mxCell>
        <mxCell id="d_-2GbY-tVZR_mkNFV36-181" style="edgeStyle=orthogonalEdgeStyle;rounded=0;orthogonalLoop=1;jettySize=auto;html=1;exitX=0.5;exitY=0;exitDx=0;exitDy=0;entryX=0.095;entryY=0.978;entryDx=0;entryDy=0;entryPerimeter=0;endArrow=none;endFill=0;" edge="1" parent="1" source="d_-2GbY-tVZR_mkNFV36-180" target="d_-2GbY-tVZR_mkNFV36-32">
          <mxGeometry relative="1" as="geometry" />
        </mxCell>
        <mxCell id="d_-2GbY-tVZR_mkNFV36-180" value="" style="ellipse;whiteSpace=wrap;html=1;aspect=fixed;" vertex="1" parent="1">
          <mxGeometry x="475" y="710" width="10" height="10" as="geometry" />
        </mxCell>
        <mxCell id="d_-2GbY-tVZR_mkNFV36-182" value="Vasca_aperto" style="text;html=1;align=center;verticalAlign=middle;resizable=0;points=[];autosize=1;strokeColor=none;fillColor=none;" vertex="1" parent="1">
          <mxGeometry x="425" y="720" width="90" height="20" as="geometry" />
        </mxCell>
        <mxCell id="d_-2GbY-tVZR_mkNFV36-184" value="" style="ellipse;whiteSpace=wrap;html=1;aspect=fixed;" vertex="1" parent="1">
          <mxGeometry x="515" y="740" width="10" height="10" as="geometry" />
        </mxCell>
        <mxCell id="d_-2GbY-tVZR_mkNFV36-185" value="Fine_periodo" style="text;html=1;align=center;verticalAlign=middle;resizable=0;points=[];autosize=1;strokeColor=none;fillColor=none;" vertex="1" parent="1">
          <mxGeometry x="475" y="750" width="90" height="20" as="geometry" />
        </mxCell>
        <mxCell id="d_-2GbY-tVZR_mkNFV36-187" style="edgeStyle=orthogonalEdgeStyle;rounded=0;orthogonalLoop=1;jettySize=auto;html=1;exitX=0.5;exitY=0;exitDx=0;exitDy=0;entryX=0.9;entryY=0.978;entryDx=0;entryDy=0;entryPerimeter=0;endArrow=none;endFill=0;" edge="1" parent="1" source="d_-2GbY-tVZR_mkNFV36-186" target="d_-2GbY-tVZR_mkNFV36-32">
          <mxGeometry relative="1" as="geometry" />
        </mxCell>
        <mxCell id="d_-2GbY-tVZR_mkNFV36-186" value="" style="ellipse;whiteSpace=wrap;html=1;aspect=fixed;" vertex="1" parent="1">
          <mxGeometry x="555" y="710" width="10" height="10" as="geometry" />
        </mxCell>
        <mxCell id="d_-2GbY-tVZR_mkNFV36-188" value="Inizio_periodo" style="text;html=1;align=center;verticalAlign=middle;resizable=0;points=[];autosize=1;strokeColor=none;fillColor=none;" vertex="1" parent="1">
          <mxGeometry x="515" y="720" width="90" height="20" as="geometry" />
        </mxCell>
        <mxCell id="d_-2GbY-tVZR_mkNFV36-189" value="(0,1)" style="text;html=1;align=center;verticalAlign=middle;resizable=0;points=[];autosize=1;strokeColor=none;fillColor=none;" vertex="1" parent="1">
          <mxGeometry x="525" y="690" width="40" height="20" as="geometry" />
        </mxCell>
        <mxCell id="d_-2GbY-tVZR_mkNFV36-190" value="(0,1)" style="text;html=1;align=center;verticalAlign=middle;resizable=0;points=[];autosize=1;strokeColor=none;fillColor=none;" vertex="1" parent="1">
          <mxGeometry x="485" y="690" width="40" height="20" as="geometry" />
        </mxCell>
      </root>
    </mxGraphModel>
  </diagram>
</mxfile>
